<?xml version="1.0" standalone="no"?>
<!DOCTYPE svg PUBLIC "-//W3C//DTD SVG 20010904//EN"
 "http://www.w3.org/TR/2001/REC-SVG-20010904/DTD/svg10.dtd">
<svg version="1.0" xmlns="http://www.w3.org/2000/svg"
 width="185.000000pt" height="185.000000pt" viewBox="0 0 185.000000 185.000000"
 preserveAspectRatio="xMidYMid meet">
<metadata>
Created by potrace 1.11, written by Peter Selinger 2001-2013
</metadata>
<g transform="translate(0.000000,185.000000) scale(0.100000,-0.100000)"
fill="#000000" stroke="none">
<path d="M1680 1768 c-74 -22 -142 -41 -150 -43 -18 -4 -455 -127 -550 -155
-104 -30 -266 -75 -395 -111 -66 -18 -123 -35 -128 -39 -4 -3 8 -22 25 -42
144 -157 179 -196 198 -218 l21 -24 -21 -8 c-12 -4 -31 -10 -43 -12 -23 -5
-481 -134 -575 -162 -56 -17 -56 -20 -12 -64 8 -8 78 -85 155 -170 77 -85 147
-162 155 -170 8 -9 51 -56 95 -104 44 -49 91 -101 105 -116 29 -32 167 -182
227 -249 23 -25 44 -44 46 -41 3 3 30 86 62 185 92 293 145 458 157 489 l11
28 30 -33 c28 -33 172 -191 253 -278 l41 -44 16 49 c8 27 38 119 65 204 71
220 180 563 204 640 11 36 31 97 43 135 22 65 103 320 119 373 9 28 11 28
-154 -20z m25 -245 c-37 -114 -85 -264 -107 -333 -22 -69 -47 -147 -56 -175
-9 -27 -17 -52 -17 -55 -1 -5 -91 -287 -137 -429 -17 -54 -23 -62 -32 -48 -12
15 -134 150 -228 251 -26 28 -48 56 -48 61 0 6 25 89 56 185 31 96 57 182 59
190 2 8 11 36 19 63 8 26 12 47 9 47 -5 0 -391 -107 -454 -126 -18 -5 -19 -4
-89 72 -24 27 -69 75 -99 107 -30 31 -52 59 -50 61 4 4 301 92 339 101 8 2
105 29 215 60 215 61 580 164 605 170 8 2 29 8 45 13 17 5 31 5 33 1 2 -4 -27
-101 -63 -216z"/>
</g>
</svg>
